nColumns=19
nRows=77
DataType=double
version=3
OpenSimVersion=4.1
endheader
time	ground_force_1_vx	ground_force_1_vy	ground_force_1_vz	ground_force_1_px	ground_force_1_py	ground_force_1_pz	ground_force_1_mx	ground_force_1_my	ground_force_1_mz	ground_force_2_vx	ground_force_2_vy	ground_force_2_vz	ground_force_2_px	ground_force_2_py	ground_force_2_pz	ground_force_2_mx	ground_force_2_my	ground_force_2_mz
3.665	121.125	842.834	-30.925	1.38054	0	-0.420423	0	2.28343	0	-1.15027	0.86855	-0.319831	1.91216	0	-0.542055	0	-2.12422e-08	0
3.67	125.481	838.912	-29.8668	1.38175	0	-0.421646	0	2.07419	0	-1.77195	1.43517	-0.584678	1.91646	0	-0.540567	0	-5.21504e-08	0
3.675	129.82	833.409	-28.7216	1.38306	0	-0.423001	0	1.84804	0	-2.83496	2.49297	-1.13984	1.92001	0	-0.539082	0	-1.46781e-07	0
3.68	134.048	826.592	-27.3501	1.38448	0	-0.424489	0	1.65068	0	-4.64189	4.50598	-2.31494	1.92281	0	-0.537669	0	-4.43111e-07	0
3.685	138.102	817.991	-25.8696	1.38603	0	-0.426132	0	1.50184	0	-7.56563	8.31594	-4.77219	1.9249	0	-0.536409	0	-1.33376e-06	0
3.69	141.836	807.177	-24.1972	1.38774	0	-0.42797	0	1.36735	0	-11.6077	15.1604	-9.70898	1.92629	0	-0.535401	0	-3.45676e-06	0
3.695	145.554	793.565	-21.9518	1.38959	0	-0.429948	0	1.22609	0	-14.629	26.0748	-18.9991	1.92705	0	-0.53477	0	-1.03357e-06	0
3.7	149.75	777.122	-19.8332	1.39155	0	-0.431976	0	1.04158	0	-4.71022	42.5087	-22.9689	1.92742	0	-0.534767	0	0.000685059	0
3.705	153.501	757.966	-17.5564	1.39355	0	-0.433944	0	0.773472	0	9.35261	78.7372	-25.072	1.92811	0	-0.53475	0	0.00319789	0
3.71	156.491	736.145	-15.2312	1.39554	0	-0.435775	0	0.40946	0	14.7269	149.756	-29.1763	1.92882	0	-0.534736	0	0.0114191	0
3.715	158.886	711.725	-13.3207	1.39754	0	-0.437491	0	-0.0227542	0	3.00257	234.14	-33.2863	1.92971	0	-0.534975	0	0.0382248	0
3.72	160.257	684.045	-11.4699	1.39957	0	-0.439084	0	-0.404045	0	-9.89727	307.616	-36.3876	1.93125	0	-0.53568	0	0.10696	0
3.725	160.065	652.38	-9.439	1.4016	0	-0.440443	0	-0.664525	0	-20.1489	363.654	-36.6171	1.9335	0	-0.536841	0	0.212485	0
3.73	158.566	617.926	-7.42538	1.40358	0	-0.441439	0	-0.829479	0	-32.885	403.006	-35.3471	1.93602	0	-0.53818	0	0.319587	0
3.735	156.308	581.415	-4.936	1.40555	0	-0.442058	0	-0.928173	0	-45.0378	433.462	-32.2744	1.93958	0	-0.540137	0	0.450552	0
3.74	152.529	540.524	-1.87972	1.40771	0	-0.442405	0	-0.970018	0	-57.0437	467.649	-28.3968	1.94571	0	-0.543609	0	0.586458	0
3.745	146.624	493.325	1.35949	1.41024	0	-0.442528	0	-0.96149	0	-69.6711	503.689	-22.9079	1.95338	0	-0.547592	0	0.51066	0
3.75	139.075	441.681	4.76247	1.41322	0	-0.442321	0	-0.921498	0	-80.7146	533.636	-16.9651	1.96115	0	-0.550728	0	0.16404	0
3.755	129.483	383.622	7.80896	1.41711	0	-0.44197	0	-0.798718	0	-90.5907	557.919	-12.0199	1.96911	0	-0.552867	0	-0.0255332	0
3.76	118.934	320.031	9.96904	1.42239	0	-0.441447	0	-0.579443	0	-100.606	582.032	-7.09172	1.97765	0	-0.554659	0	0.257811	0
3.765	105.13	257.329	11.3001	1.42941	0	-0.440692	0	-0.306946	0	-110.595	605.876	-1.53998	1.98613	0	-0.556198	0	0.81543	0
3.77	85.3435	200.223	11.4813	1.43852	0	-0.439576	0	-0.0456131	0	-120.086	627.753	3.48489	1.99416	0	-0.557148	0	1.60649	0
3.775	72.1923	174.608	11.1548	1.44126	0	-0.438934	0	0.000858801	0	-128.529	646.349	8.50707	2.0012	0	-0.557534	0	2.5209	0
3.78	70.3029	162.341	9.76765	1.44188	0	-0.438982	0	2.4384e-05	0	-135.563	661.713	14.0681	2.00697	0	-0.55768	0	3.30913	0
3.785	67.9704	156.902	8.36512	1.44252	0	-0.439021	0	4.19257e-06	0	-141.276	676.966	19.7977	2.01182	0	-0.557824	0	3.95773	0
3.79	53.3378	146.395	7.4296	1.44305	0	-0.439032	0	1.40647e-07	0	-145.256	693.459	25.5992	2.0157	0	-0.558038	0	4.45232	0
3.795	40.7119	127.877	5.79325	1.44385	0	-0.439041	0	6.09472e-10	0	-147.466	710.931	31.5448	2.01863	0	-0.558333	0	4.74584	0
3.8	33.2104	106.341	3.17795	1.44493	0	-0.439072	0	1.02407e-12	0	-148.342	728.821	37.2995	2.02097	0	-0.558639	0	4.9679	0
3.805	18.3881	78.7804	2.61004	1.44595	0	-0.439036	0	-1.77636e-15	0	-148.147	748.105	41.8873	2.02292	0	-0.558901	0	5.21053	0
3.81	-5.12197	39.2015	4.37145	1.4467	0	-0.438881	0	0	0	-146.574	771.398	45.7297	2.02395	0	-0.559186	0	5.10129	0
3.815	-0.244388	0.27963	0.0755879	1.44804	0	-0.438837	0	0	0	-144.103	796.861	48.9763	2.02375	0	-0.55954	0	4.43047	0
3.82	0.00505134	-0.00515541	-0.00142609	1.45218	0	-0.439407	0	-4.33681e-19	0	-141.315	816.353	50.7956	2.02319	0	-0.559877	0	3.72969	0
3.825	0.0475331	-0.0461941	-0.0139095	1.45725	0	-0.44018	0	0	0	-138.012	827.563	51.5063	2.02302	0	-0.560141	0	3.44946	0
3.83	0.105396	-0.0942579	-0.0237089	1.463	0	-0.440949	0	1.38778e-17	0	-133.794	835.757	51.7505	2.02295	0	-0.560362	0	3.32427	0
3.835	0.00566839	-0.0045408	-0.000779017	1.46995	0	-0.441495	0	2.1684e-19	0	-129.007	842.991	51.4051	2.02268	0	-0.560559	0	3.15804	0
3.84	0.000356624	-0.000262774	-3.34038e-05	1.47817	0	-0.441911	0	-1.35525e-20	0	-124.04	847.663	50.571	2.02229	0	-0.56074	0	3.04669	0
3.845	7.58729e-05	-5.24276e-05	-5.42099e-06	1.48744	0	-0.442265	0	0	0	-118.919	849.385	49.4205	2.02192	0	-0.560906	0	2.97491	0
3.85	1.58263e-05	-1.02688e-05	-8.27828e-07	1.49775	0	-0.44252	0	2.11758e-22	0	-113.749	848.814	48.0634	2.0216	0	-0.561062	0	2.87273	0
3.855	3.08176e-06	-1.87781e-06	-1.0631e-07	1.50919	0	-0.442651	0	5.82335e-22	0	-108.642	846.174	46.5047	2.02131	0	-0.561215	0	2.73662	0
3.86	1.6506e-06	-9.5134e-07	-3.51013e-08	1.52165	0	-0.442686	0	1.43599e-21	0	-103.629	841.617	44.8646	2.02105	0	-0.561373	0	2.57618	0
3.865	1.96228e-06	-1.07565e-06	-2.24677e-08	1.53501	0	-0.442644	0	6.08805e-21	0	-98.7213	835.269	43.2535	2.02083	0	-0.561541	0	2.39004	0
3.87	4.39437e-06	-2.29958e-06	-1.70051e-08	1.54922	0	-0.442532	0	4.62956e-20	0	-93.9341	827.209	41.7323	2.02064	0	-0.561721	0	2.17874	0
3.875	1.35902e-05	-6.81114e-06	2.72877e-08	1.5642	0	-0.442363	0	5.06949e-19	0	-89.2705	817.516	40.3901	2.02046	0	-0.561912	0	1.94162	0
3.88	1.55357e-05	-7.48881e-06	9.37004e-08	1.57982	0	-0.442165	0	7.81287e-18	0	-84.7131	806.288	39.26	2.02027	0	-0.562113	0	1.67991	0
3.885	-9.32535e-05	4.33759e-05	-8.04343e-07	1.59599	0	-0.441954	0	5.09177e-17	0	-80.2465	793.687	38.3567	2.02005	0	-0.562321	0	1.39674	0
3.89	-0.000109036	4.90946e-05	-1.08871e-06	1.61263	0	-0.44175	0	-2.52145e-16	0	-75.875	779.937	37.6619	2.01979	0	-0.562537	0	1.08844	0
3.895	-9.36012e-05	4.09077e-05	-9.68292e-07	1.62964	0	-0.441567	0	-2.40292e-16	0	-71.5596	765.288	37.1735	2.0195	0	-0.562758	0	0.759015	0
3.9	-7.83446e-05	3.33255e-05	-7.67226e-07	1.64696	0	-0.441421	0	-1.92112e-16	0	-67.322	750.071	36.8505	2.01917	0	-0.562984	0	0.410333	0
3.905	-6.80815e-05	2.82471e-05	-5.85063e-07	1.66452	0	-0.44132	0	-1.38918e-16	0	-63.1871	734.626	36.6924	2.01883	0	-0.563212	0	0.0539061	0
3.91	-6.34756e-05	2.57436e-05	-4.35604e-07	1.68226	0	-0.441271	0	-1.00313e-16	0	-59.1479	719.249	36.6423	2.01847	0	-0.563438	0	-0.298071	0
3.915	-6.41704e-05	2.54836e-05	-3.06817e-07	1.70016	0	-0.441276	0	-9.8936e-17	0	-55.2055	704.18	36.6637	2.01811	0	-0.563657	0	-0.638713	0
3.92	-7.07961e-05	2.75759e-05	-1.72867e-07	1.71817	0	-0.441337	0	-8.93519e-17	0	-51.3609	689.634	36.6794	2.01775	0	-0.563866	0	-0.965294	0
3.925	-8.50914e-05	3.25527e-05	1.39139e-09	1.73628	0	-0.441452	0	-7.17569e-17	0	-47.6126	675.774	36.641	2.01743	0	-0.564064	0	-1.27014	0
3.93	-0.000111079	4.1792e-05	2.79699e-07	1.75447	0	-0.441618	0	-7.21052e-17	0	-43.9248	662.561	36.48	2.01716	0	-0.564249	0	-1.54401	0
3.935	-0.000156334	5.79084e-05	7.76011e-07	1.77275	0	-0.44183	0	-3.8728e-17	0	-40.3304	649.989	36.1911	2.01693	0	-0.564422	0	-1.78477	0
3.94	-0.000235414	8.59446e-05	1.71613e-06	1.79111	0	-0.442085	0	4.24728e-17	0	-36.825	638.157	35.7678	2.01681	0	-0.564589	0	-1.99586	0
3.945	-0.000375504	0.000135239	3.53605e-06	1.80956	0	-0.442375	0	2.70396e-16	0	-33.4429	627.111	35.2758	2.01682	0	-0.564753	0	-2.17642	0
3.95	-0.000628301	0.000223441	7.1124e-06	1.8281	0	-0.442696	0	9.27132e-16	0	-30.1481	616.647	34.7287	2.01695	0	-0.564916	0	-2.32295	0
3.955	-0.00109044	0.000383222	1.41401e-05	1.84675	0	-0.443043	0	2.80045e-15	0	-27.0298	606.736	34.2159	2.01719	0	-0.565076	0	-2.43632	0
3.96	-0.00194362	0.000675569	2.78459e-05	1.86552	0	-0.443409	0	8.09241e-15	0	-24.1672	597.45	33.7511	2.01753	0	-0.56523	0	-2.51175	0
3.965	-0.00352141	0.00121145	5.41259e-05	1.88443	0	-0.44379	0	2.30996e-14	0	-21.5212	588.807	33.3429	2.01796	0	-0.565374	0	-2.5491	0
3.97	-0.00642585	0.00218962	0.0001035	1.90349	0	-0.444179	0	6.55805e-14	0	-19.0826	580.953	33.0536	2.01849	0	-0.565506	0	-2.55063	0
3.975	-0.0117034	0.00395277	0.000193578	1.9227	0	-0.444574	0	1.85482e-13	0	-16.8786	573.856	32.827	2.01909	0	-0.565622	0	-2.51808	0
3.98	-0.0211092	0.00707179	0.000352275	1.94209	0	-0.444968	0	5.22075e-13	0	-14.8836	567.696	32.6917	2.01979	0	-0.565723	0	-2.45341	0
3.985	-0.0374183	0.0124426	0.000619823	1.96165	0	-0.445358	0	1.45725e-12	0	-13.2168	562.762	32.6147	2.02062	0	-0.565813	0	-2.36457	0
3.99	-0.0647891	0.0214002	0.00105075	1.9814	0	-0.445741	0	4.01217e-12	0	-11.8849	558.97	32.5197	2.02155	0	-0.56588	0	-2.258	0
3.995	-0.108958	0.035775	0.00170935	2.00133	0	-0.446114	0	1.08499e-11	0	-10.7443	556.435	32.3131	2.02255	0	-0.565923	0	-2.13474	0
4	-0.177296	0.0579085	0.00265336	2.02145	0	-0.446474	0	2.86905e-11	0	-9.89278	555.263	31.9357	2.02365	0	-0.565941	0	-1.99958	0
4.005	-0.278311	0.0904898	0.00390732	2.04175	0	-0.446816	0	7.39492e-11	0	-9.22817	555.462	31.279	2.02485	0	-0.565938	0	-1.85272	0
4.01	-0.421058	0.136373	0.00544467	2.06223	0	-0.447138	0	1.85363e-10	0	-8.63084	557.03	30.3446	2.02616	0	-0.56592	0	-1.69521	0
4.015	-0.613921	0.198188	0.00715608	2.08288	0	-0.447435	0	4.51435e-10	0	-8.02754	559.85	29.1717	2.02756	0	-0.565891	0	-1.53527	0
4.02	-0.864328	0.278258	0.0088262	2.10369	0	-0.447705	0	1.06806e-09	0	-7.33973	563.719	27.8308	2.02907	0	-0.565859	0	-1.38102	0
4.025	-1.17762	0.378241	0.0101029	2.12464	0	-0.447942	0	2.4566e-09	0	-6.53498	568.354	26.4868	2.03067	0	-0.565832	0	-1.24851	0
4.03	-1.55676	0.499065	0.0105096	2.14572	0	-0.448144	0	5.49694e-09	0	-5.58302	573.476	25.2379	2.03236	0	-0.565815	0	-1.14717	0
4.035	-2.00055	0.640378	0.00944114	2.16692	0	-0.448305	0	1.19692e-08	0	-4.51491	578.816	24.2106	2.03411	0	-0.565813	0	-1.08612	0
4.04	-2.50219	0.800129	0.0062545	2.18823	0	-0.448422	0	2.53221e-08	0	-3.36645	584.157	23.4567	2.03594	0	-0.565828	0	-1.0721	0
4.045	-3.04874	0.974367	0.000327916	2.20962	0	-0.44849	0	5.1965e-08	0	-2.16181	589.369	22.9769	2.03783	0	-0.565863	0	-1.10819	0
